<?xml version="1.0" encoding="UTF-8"?>
<!-- Generated by Pixelmator Pro 2.3.8 -->
<svg width="481" height="481" viewBox="0 0 481 481" xmlns="http://www.w3.org/2000/svg" xmlns:xlink="http://www.w3.org/1999/xlink">
    <g id="Group">
        <g id="g1">
            <path id="Path" fill="#769aa5" stroke="none" d="M 375.799988 403.052765 C 375.799988 408.814453 371.190643 414 364.852753 414 L 115.947235 414 C 110.185532 414 105 409.390656 105 403.052765 L 105 86.735321 C 105 80.973633 109.60936 75.788086 115.947235 75.788086 L 364.852753 75.788086 C 370.614471 75.788086 375.799988 80.39743 375.799988 86.735321 L 375.799988 403.052765 Z"/>
            <path id="path1" fill="#b6d1d8" stroke="none" d="M 375.799988 394.410217 C 375.799988 400.171906 371.190643 405.357452 364.852753 405.357452 L 115.947235 405.357452 C 110.185532 405.357452 105 400.748108 105 394.410217 L 105 78.092773 C 105 72.331085 109.60936 67.145538 115.947235 67.145538 L 364.852753 67.145538 C 370.614471 67.145538 375.799988 71.754883 375.799988 78.092773 L 375.799988 394.410217 Z"/>
            <path id="path2" fill="#a2c0cc" stroke="none" d="M 105 78.092773 C 105 72.331085 109.60936 67.145538 115.947235 67.145538 L 364.852753 67.145538 C 370.614471 67.145538 375.799988 71.754883 375.799988 78.092773 L 375.799988 394.410217 C 375.799988 400.171906 371.190643 405.357452 364.852753 405.357452"/>
            <path id="path3" fill="#53ad8a" stroke="none" d="M 352.177032 183.531921 C 352.177032 195.055328 342.958313 204.274048 331.434906 204.274048 L 149.941269 204.274048 C 138.417877 204.274048 129.199158 195.055328 129.199158 183.531921 L 129.199158 110.934479 C 129.199158 99.411072 138.417877 90.192352 149.941269 90.192352 L 330.858704 90.192352 C 342.382111 90.192352 351.600861 99.411072 351.600861 110.934479 L 351.600861 183.531921 L 352.177032 183.531921 Z"/>
            <path id="path4" fill="#3ca589" stroke="none" d="M 330.858704 90.192352 L 149.941269 90.192352 C 138.417877 90.192352 129.199158 99.411072 129.199158 110.934479 L 129.199158 177.194061 C 129.199158 188.717468 138.417877 197.936188 149.941269 197.936188 L 330.858704 197.936188 C 342.382111 197.936188 351.600861 188.717468 351.600861 177.194061 L 351.600861 110.934479 C 352.177032 99.411072 342.382111 90.192352 330.858704 90.192352 Z"/>
            <path id="path5" fill="#319385" stroke="none" d="M 128.622971 177.194061 C 128.622971 188.717468 137.841705 197.936188 149.365112 197.936188 L 330.282562 197.936188 C 341.805969 197.936188 351.024658 188.717468 351.024658 177.194061 L 351.024658 110.934479 C 351.024658 99.411072 341.805969 90.192352 330.282562 90.192352"/>
            <path id="path6" fill="#cce6ed" stroke="none" d="M 115.947235 404.781281 C 110.185532 404.781281 105 400.171906 105 393.834045 L 105 78.092773 C 105 72.331085 109.60936 67.145538 115.947235 67.145538"/>
            <path id="path7" fill="#aeced6" stroke="none" d="M 115.947235 67.145538 C 110.185532 67.145538 105 71.754883 105 78.092773 L 115.947235 91.920837 L 115.947235 67.145538 Z"/>
            <path id="path8" fill="#769aa5" stroke="none" d="M 167.226379 247.486801 C 167.226379 253.248505 162.61702 258.434052 156.279144 258.434052 L 143.603409 258.434052 C 137.841705 258.434052 132.656174 253.824692 132.656174 247.486801 L 132.656174 234.811066 C 132.656174 229.049377 137.841705 223.863831 143.603409 223.863831 L 156.279144 223.863831 C 162.040848 223.863831 167.226379 228.47319 167.226379 234.811066 L 167.226379 247.486801 Z"/>
            <path id="path9" fill="#3c5960" stroke="none" d="M 167.226379 242.877441 C 167.226379 248.639145 162.61702 253.824692 156.279144 253.824692 L 143.603409 253.824692 C 137.841705 253.824692 132.656174 249.215317 132.656174 242.877441 L 132.656174 230.201691 C 132.656174 224.440002 137.841705 219.254486 143.603409 219.254486 L 156.279144 219.254486 C 162.040848 219.254486 167.226379 223.863831 167.226379 230.201691 L 167.226379 242.877441 Z"/>
            <path id="path10" fill="#334449" stroke="none" d="M 156.279144 219.254486 C 162.040848 219.254486 167.226379 223.863831 167.226379 230.201691 L 167.226379 242.877441 C 167.226379 248.639145 162.61702 253.824692 156.279144 253.824692 L 143.603409 253.824692 C 137.841705 253.824692 132.656174 249.215317 132.656174 242.877441"/>
            <path id="path11" fill="#769aa5" stroke="none" d="M 225.419571 247.486801 C 225.419571 253.248505 220.810211 258.434052 214.472336 258.434052 L 201.796585 258.434052 C 196.034897 258.434052 190.849365 253.824692 190.849365 247.486801 L 190.849365 234.811066 C 190.849365 229.049377 195.458725 223.863831 201.796585 223.863831 L 214.472336 223.863831 C 220.234039 223.863831 225.419571 228.47319 225.419571 234.811066 L 225.419571 247.486801 Z"/>
            <path id="path12" fill="#3c5960" stroke="none" d="M 225.419571 242.877441 C 225.419571 248.639145 220.810211 253.824692 214.472336 253.824692 L 201.796585 253.824692 C 196.034897 253.824692 190.849365 249.215317 190.849365 242.877441 L 190.849365 230.201691 C 190.849365 224.440002 195.458725 219.254486 201.796585 219.254486 L 214.472336 219.254486 C 220.234039 219.254486 225.419571 223.863831 225.419571 230.201691 L 225.419571 242.877441 Z"/>
            <path id="path13" fill="#334449" stroke="none" d="M 214.472336 219.254486 C 220.234039 219.254486 225.419571 223.863831 225.419571 230.201691 L 225.419571 242.877441 C 225.419571 248.639145 220.810211 253.824692 214.472336 253.824692 L 201.796585 253.824692 C 196.034897 253.824692 190.849365 249.215317 190.849365 242.877441"/>
            <path id="path14" fill="#769aa5" stroke="none" d="M 283.612762 247.486801 C 283.612762 253.248505 279.003387 258.434052 272.665527 258.434052 L 259.989777 258.434052 C 254.228088 258.434052 249.042557 253.824692 249.042557 247.486801 L 249.042557 234.811066 C 249.042557 229.049377 253.651917 223.863831 259.989777 223.863831 L 272.665527 223.863831 C 278.427246 223.863831 283.612762 228.47319 283.612762 234.811066 L 283.612762 247.486801 Z"/>
            <path id="path15" fill="#3c5960" stroke="none" d="M 283.612762 242.877441 C 283.612762 248.639145 279.003387 253.824692 272.665527 253.824692 L 259.989777 253.824692 C 254.228088 253.824692 249.042557 249.215317 249.042557 242.877441 L 249.042557 230.201691 C 249.042557 224.440002 253.651917 219.254486 259.989777 219.254486 L 272.665527 219.254486 C 278.427246 219.254486 283.612762 223.863831 283.612762 230.201691 L 283.612762 242.877441 Z"/>
            <path id="path16" fill="#334449" stroke="none" d="M 272.665527 219.254486 C 278.427246 219.254486 283.612762 223.863831 283.612762 230.201691 L 283.612762 242.877441 C 283.612762 248.639145 279.003387 253.824692 272.665527 253.824692 L 259.989777 253.824692 C 254.228088 253.824692 249.042557 249.215317 249.042557 242.877441"/>
            <path id="path17" fill="#769aa5" stroke="none" d="M 167.226379 303.951477 C 167.226379 309.713196 162.61702 314.898743 156.279144 314.898743 L 143.603409 314.898743 C 137.841705 314.898743 132.656174 310.289368 132.656174 303.951477 L 132.656174 291.275757 C 132.656174 285.514038 137.841705 280.328491 143.603409 280.328491 L 156.279144 280.328491 C 162.040848 280.328491 167.226379 284.937866 167.226379 291.275757 L 167.226379 303.951477 Z"/>
            <path id="path18" fill="#3c5960" stroke="none" d="M 167.226379 299.342102 C 167.226379 305.103821 162.61702 310.289368 156.279144 310.289368 L 143.603409 310.289368 C 137.841705 310.289368 132.656174 305.679993 132.656174 299.342102 L 132.656174 286.666382 C 132.656174 280.904663 137.841705 275.719147 143.603409 275.719147 L 156.279144 275.719147 C 162.040848 275.719147 167.226379 280.328491 167.226379 286.666382 L 167.226379 299.342102 Z"/>
            <path id="path19" fill="#334449" stroke="none" d="M 156.279144 275.719147 C 162.040848 275.719147 167.226379 280.328491 167.226379 286.666382 L 167.226379 299.342102 C 167.226379 305.103821 162.61702 310.289368 156.279144 310.289368 L 143.603409 310.289368 C 137.841705 310.289368 132.656174 305.679993 132.656174 299.342102"/>
            <path id="path20" fill="#769aa5" stroke="none" d="M 225.419571 303.951477 C 225.419571 309.713196 220.810211 314.898743 214.472336 314.898743 L 201.796585 314.898743 C 196.034897 314.898743 190.849365 310.289368 190.849365 303.951477 L 190.849365 291.275757 C 190.849365 285.514038 195.458725 280.328491 201.796585 280.328491 L 214.472336 280.328491 C 220.234039 280.328491 225.419571 284.937866 225.419571 291.275757 L 225.419571 303.951477 Z"/>
            <path id="path21" fill="#3c5960" stroke="none" d="M 225.419571 299.342102 C 225.419571 305.103821 220.810211 310.289368 214.472336 310.289368 L 201.796585 310.289368 C 196.034897 310.289368 190.849365 305.679993 190.849365 299.342102 L 190.849365 286.666382 C 190.849365 280.904663 195.458725 275.719147 201.796585 275.719147 L 214.472336 275.719147 C 220.234039 275.719147 225.419571 280.328491 225.419571 286.666382 L 225.419571 299.342102 Z"/>
            <path id="path22" fill="#334449" stroke="none" d="M 214.472336 275.719147 C 220.234039 275.719147 225.419571 280.328491 225.419571 286.666382 L 225.419571 299.342102 C 225.419571 305.103821 220.810211 310.289368 214.472336 310.289368 L 201.796585 310.289368 C 196.034897 310.289368 190.849365 305.679993 190.849365 299.342102"/>
            <path id="path23" fill="#769aa5" stroke="none" d="M 283.612762 303.951477 C 283.612762 309.713196 279.003387 314.898743 272.665527 314.898743 L 259.989777 314.898743 C 254.228088 314.898743 249.042557 310.289368 249.042557 303.951477 L 249.042557 291.275757 C 249.042557 285.514038 253.651917 280.328491 259.989777 280.328491 L 272.665527 280.328491 C 278.427246 280.328491 283.612762 284.937866 283.612762 291.275757 L 283.612762 303.951477 Z"/>
            <path id="path24" fill="#3c5960" stroke="none" d="M 283.612762 299.342102 C 283.612762 305.103821 279.003387 310.289368 272.665527 310.289368 L 259.989777 310.289368 C 254.228088 310.289368 249.042557 305.679993 249.042557 299.342102 L 249.042557 286.666382 C 249.042557 280.904663 253.651917 275.719147 259.989777 275.719147 L 272.665527 275.719147 C 278.427246 275.719147 283.612762 280.328491 283.612762 286.666382 L 283.612762 299.342102 Z"/>
            <path id="path25" fill="#334449" stroke="none" d="M 272.665527 275.719147 C 278.427246 275.719147 283.612762 280.328491 283.612762 286.666382 L 283.612762 299.342102 C 283.612762 305.103821 279.003387 310.289368 272.665527 310.289368 L 259.989777 310.289368 C 254.228088 310.289368 249.042557 305.679993 249.042557 299.342102"/>
            <path id="path26" fill="#769aa5" stroke="none" d="M 167.226379 360.416199 C 167.226379 366.177887 162.61702 371.363403 156.279144 371.363403 L 143.603409 371.363403 C 137.841705 371.363403 132.656174 366.754028 132.656174 360.416199 L 132.656174 347.740417 C 132.656174 341.978729 137.841705 336.793213 143.603409 336.793213 L 156.279144 336.793213 C 162.040848 336.793213 167.226379 341.402527 167.226379 347.740417 L 167.226379 360.416199 Z"/>
            <path id="path27" fill="#3c5960" stroke="none" d="M 167.226379 355.806793 C 167.226379 361.568512 162.61702 366.754028 156.279144 366.754028 L 143.603409 366.754028 C 137.841705 366.754028 132.656174 362.144684 132.656174 355.806793 L 132.656174 343.131073 C 132.656174 337.369385 137.841705 332.183838 143.603409 332.183838 L 156.279144 332.183838 C 162.040848 332.183838 167.226379 336.793213 167.226379 343.131073 L 167.226379 355.806793 Z"/>
            <path id="path28" fill="#334449" stroke="none" d="M 156.279144 331.607666 C 162.040848 331.607666 167.226379 336.217041 167.226379 342.554871 L 167.226379 355.806793 C 167.226379 361.568512 162.61702 366.754028 156.279144 366.754028 L 143.603409 366.754028 C 137.841705 366.754028 132.656174 362.144684 132.656174 355.806793"/>
            <path id="path29" fill="#769aa5" stroke="none" d="M 225.419571 360.416199 C 225.419571 366.177887 220.810211 371.363403 214.472336 371.363403 L 201.796585 371.363403 C 196.034897 371.363403 190.849365 366.754028 190.849365 360.416199 L 190.849365 347.740417 C 190.849365 341.978729 195.458725 336.793213 201.796585 336.793213 L 214.472336 336.793213 C 220.234039 336.793213 225.419571 341.402527 225.419571 347.740417 L 225.419571 360.416199 Z"/>
            <path id="path30" fill="#3c5960" stroke="none" d="M 225.419571 355.806793 C 225.419571 361.568512 220.810211 366.754028 214.472336 366.754028 L 201.796585 366.754028 C 196.034897 366.754028 190.849365 362.144684 190.849365 355.806793 L 190.849365 343.131073 C 190.849365 337.369385 195.458725 332.183838 201.796585 332.183838 L 214.472336 332.183838 C 220.234039 332.183838 225.419571 336.793213 225.419571 343.131073 L 225.419571 355.806793 Z"/>
            <path id="path31" fill="#334449" stroke="none" d="M 214.472336 331.607666 C 220.234039 331.607666 225.419571 336.217041 225.419571 342.554871 L 225.419571 355.806793 C 225.419571 361.568512 220.810211 366.754028 214.472336 366.754028 L 201.796585 366.754028 C 196.034897 366.754028 190.849365 362.144684 190.849365 355.806793"/>
            <path id="path32" fill="#769aa5" stroke="none" d="M 283.612762 360.416199 C 283.612762 366.177887 279.003387 371.363403 272.665527 371.363403 L 259.989777 371.363403 C 254.228088 371.363403 249.042557 366.754028 249.042557 360.416199 L 249.042557 347.740417 C 249.042557 341.978729 253.651917 336.793213 259.989777 336.793213 L 272.665527 336.793213 C 278.427246 336.793213 283.612762 341.402527 283.612762 347.740417 L 283.612762 360.416199 Z"/>
            <path id="path33" fill="#3c5960" stroke="none" d="M 283.612762 355.806793 C 283.612762 361.568512 279.003387 366.754028 272.665527 366.754028 L 259.989777 366.754028 C 254.228088 366.754028 249.042557 362.144684 249.042557 355.806793 L 249.042557 343.131073 C 249.042557 337.369385 253.651917 332.183838 259.989777 332.183838 L 272.665527 332.183838 C 278.427246 332.183838 283.612762 336.793213 283.612762 343.131073 L 283.612762 355.806793 Z"/>
            <path id="path34" fill="#334449" stroke="none" d="M 272.665527 331.607666 C 278.427246 331.607666 283.612762 336.217041 283.612762 342.554871 L 283.612762 355.806793 C 283.612762 361.568512 279.003387 366.754028 272.665527 366.754028 L 259.989777 366.754028 C 254.228088 366.754028 249.042557 362.144684 249.042557 355.806793"/>
            <path id="path35" fill="#769aa5" stroke="none" d="M 348.143829 360.416199 C 348.143829 366.177887 343.534454 371.363403 337.196594 371.363403 L 317.606812 371.363403 C 311.845093 371.363403 306.659576 366.754028 306.659576 360.416199 L 306.659576 261.891052 C 306.659576 256.129364 311.268951 250.943832 317.606812 250.943832 L 337.196594 250.943832 C 342.958313 250.943832 348.143829 255.553192 348.143829 261.891052 L 348.143829 360.416199 Z"/>
            <path id="path36" fill="#ff7300" stroke="none" d="M 348.143829 354.65448 C 348.143829 360.416199 343.534454 365.601685 337.196594 365.601685 L 317.606812 365.601685 C 311.845093 365.601685 306.659576 360.99234 306.659576 354.65448 L 306.659576 256.129364 C 306.659576 250.367661 311.268951 245.182129 317.606812 245.182129 L 337.196594 245.182129 C 342.958313 245.182129 348.143829 249.791489 348.143829 256.129364 L 348.143829 354.65448 Z"/>
            <path id="path37" fill="#ffaa00" stroke="none" d="M 306.083405 354.65448 L 306.083405 256.129364 C 306.083405 250.367661 310.692749 245.182129 317.03064 245.182129"/>
        </g>
        <path id="path38" fill="#769aa5" stroke="none" d="M 316.454468 225.016174 C 316.454468 227.320847 314.725952 229.049377 312.421265 229.049377 C 310.116608 229.049377 308.964264 227.320847 308.964264 225.016174 C 308.964264 222.711487 310.692749 220.982971 312.421265 220.982971 C 314.725952 221.559143 316.454468 223.287659 316.454468 225.016174 Z"/>
        <path id="path39" fill="#769aa5" stroke="none" d="M 332.011047 225.016174 C 332.011047 227.320847 330.282562 229.049377 327.977875 229.049377 C 325.673187 229.049377 324.520844 227.320847 324.520844 225.016174 C 324.520844 222.711487 326.249359 220.982971 327.977875 220.982971 C 330.282562 221.559143 332.011047 223.287659 332.011047 225.016174 Z"/>
    </g>
</svg>
